<svg width="64" height="64" viewBox="0 0 64 64" fill="none" xmlns="http://www.w3.org/2000/svg">
<g clip-path="url(#clip0_2_2)">
<path d="M60 4H4C1.7908 4 0 5.7909 0 8V56C0 58.2091 1.7908 60 4 60H60C62.2092 60 64 58.2091 64 56V8C64 5.7909 62.2092 4 60 4ZM62 56C62 57.1028 61.1028 58 60 58H4C2.8972 58 2 57.1028 2 56V8C2 6.8972 2.8972 6 4 6H60C61.1028 6 62 6.8972 62 8V56Z" fill="black" stroke="black" stroke-width="2"/>
<path d="M32 32C36.4183 32 40 27.9705 40 23C40 18.0294 36.4183 14 32 14C27.5817 14 24 18.0294 24 23C24 27.9705 27.5817 32 32 32ZM32 16C35.3084 16 38 19.1402 38 23C38 26.8598 35.3084 30 32 30C28.6916 30 26 26.8598 26 23C26 19.1402 28.6916 16 32 16Z" fill="black" stroke="black" stroke-width="2"/>
<path d="M31.9999 33C23.1634 33 16 40.3828 16 49.4899C16 50.6956 16.1333 51.8679 16.3716 53H47.6284C47.8667 51.8679 48 50.6956 48 49.4899C48 40.3828 40.8365 33 31.9999 33ZM45.9209 51H18.0791C18.0265 50.4935 18 49.989 18 49.4899C18 41.5002 24.2803 35 31.9999 35C39.7196 35 46 41.5002 46 49.4899C46 49.989 45.9735 50.4935 45.9209 51Z" fill="black" stroke="black" stroke-width="2"/>
</g>
<defs>
<clipPath id="clip0_2_2">
<rect width="64" height="64" fill="white"/>
</clipPath>
</defs>
</svg>
