<?xml version="1.0" encoding="iso-8859-1"?>
<!-- Generator: Adobe Illustrator 19.0.0, SVG Export Plug-In . SVG Version: 6.00 Build 0)  -->
<svg version="1.1" id="Layer_1" xmlns="http://www.w3.org/2000/svg" xmlns:xlink="http://www.w3.org/1999/xlink" x="0px" y="0px"
	 viewBox="0 0 173.729 173.729" style="enable-background:new 0 0 173.729 173.729;" xml:space="preserve">
<g>
	<g>
		<g>
			<path d="M17.373,46.907H45.17c1.919,0,3.475-1.554,3.475-3.475V19.11c0-1.92-1.556-3.475-3.475-3.475H17.373
				c-1.919,0-3.475,1.554-3.475,3.475v24.322C13.898,45.353,15.454,46.907,17.373,46.907z M20.847,22.585h20.847v17.373H20.847
				V22.585z"/>
			<path d="M31.271,158.092c11.496,0,20.847-9.351,20.847-20.847c0-11.496-9.351-20.847-20.847-20.847
				c-11.496,0-20.847,9.351-20.847,20.847S19.775,158.092,31.271,158.092z M31.271,123.348c7.663,0,13.898,6.233,13.898,13.898
				c0,7.665-6.234,13.898-13.898,13.898s-13.898-6.233-13.898-13.898C17.373,129.581,23.608,123.348,31.271,123.348z"/>
			<rect x="13.898" y="53.856" width="24.322" height="6.949"/>
			<rect x="13.898" y="71.229" width="34.746" height="6.949"/>
			<rect x="13.898" y="88.602" width="34.746" height="6.949"/>
			<path d="M72.966,46.907h27.797c1.919,0,3.475-1.554,3.475-3.475V19.11c0-1.92-1.556-3.475-3.475-3.475H72.966
				c-1.919,0-3.475,1.554-3.475,3.475v24.322C69.492,45.353,71.047,46.907,72.966,46.907z M76.441,22.585h20.847v17.373H76.441
				V22.585z"/>
			<path d="M86.864,158.092c11.496,0,20.847-9.351,20.847-20.847c0-11.496-9.351-20.847-20.847-20.847
				c-11.496,0-20.847,9.351-20.847,20.847S75.368,158.092,86.864,158.092z M86.864,123.348c7.663,0,13.898,6.233,13.898,13.898
				c0.001,7.665-6.234,13.898-13.898,13.898s-13.898-6.233-13.898-13.898C72.966,129.581,79.201,123.348,86.864,123.348z"/>
			<rect x="69.492" y="53.856" width="34.746" height="6.949"/>
			<rect x="69.492" y="71.229" width="24.322" height="6.949"/>
			<path d="M170.254,1.737h-55.593H59.068H3.475C1.556,1.737,0,3.291,0,5.212v163.305c0,1.92,1.556,3.475,3.475,3.475h55.593h55.593
				h55.593c1.919,0,3.475-1.554,3.475-3.475V5.212C173.729,3.291,172.173,1.737,170.254,1.737z M55.593,165.042H6.949V8.686h48.644
				V165.042z M111.186,165.042H62.542V8.686h48.644V165.042z M166.78,165.042h-48.644V8.686h48.644V165.042z"/>
			<path d="M128.559,46.907h27.797c1.919,0,3.475-1.554,3.475-3.475V19.11c0-1.92-1.556-3.475-3.475-3.475h-27.797
				c-1.919,0-3.475,1.554-3.475,3.475v24.322C125.085,45.353,126.641,46.907,128.559,46.907z M132.034,22.585h20.847v17.373h-20.847
				V22.585z"/>
			<path d="M142.458,158.093c11.496,0,20.847-9.351,20.847-20.847c0-11.496-9.351-20.847-20.847-20.847
				c-11.496,0-20.847,9.351-20.847,20.847C121.611,148.742,130.962,158.093,142.458,158.093z M142.458,123.347
				c7.664,0,13.898,6.233,13.898,13.898s-6.235,13.898-13.898,13.898c-7.663,0-13.898-6.233-13.898-13.898
				C128.559,129.581,134.794,123.347,142.458,123.347z"/>
			<rect x="125.085" y="53.856" width="34.746" height="6.949"/>
			<rect x="125.085" y="71.229" width="34.746" height="6.949"/>
		</g>
	</g>
</g>
<g>
</g>
<g>
</g>
<g>
</g>
<g>
</g>
<g>
</g>
<g>
</g>
<g>
</g>
<g>
</g>
<g>
</g>
<g>
</g>
<g>
</g>
<g>
</g>
<g>
</g>
<g>
</g>
<g>
</g>
</svg>
